<svg width="28" height="28" viewBox="0 0 28 28" fill="none" xmlns="http://www.w3.org/2000/svg">
<path fill-rule="evenodd" clip-rule="evenodd" d="M0.87868 0.87868C1.44129 0.316071 2.20435 0 3 0H17C17.2652 0 17.5196 0.105357 17.7071 0.292893L27.7071 10.2929C27.8946 10.4804 28 10.7348 28 11V25C28 25.7957 27.6839 26.5587 27.1213 27.1213C26.5587 27.6839 25.7957 28 25 28H3C2.20435 28 1.44129 27.6839 0.87868 27.1213C0.316071 26.5587 0 25.7957 0 25V3C0 2.20435 0.316071 1.44129 0.87868 0.87868ZM3 2C2.73478 2 2.48043 2.10536 2.29289 2.29289C2.10536 2.48043 2 2.73478 2 3V25C2 25.2652 2.10536 25.5196 2.29289 25.7071C2.48043 25.8946 2.73478 26 3 26H25C25.2652 26 25.5196 25.8946 25.7071 25.7071C25.8946 25.5196 26 25.2652 26 25V12L17.9996 12C17.4692 12 16.9605 11.7893 16.5854 11.4142C16.2104 11.0391 15.9996 10.5304 15.9996 10L16 2H3ZM17.9999 3.41412L24.5858 10L17.9996 10L17.9999 3.41412ZM8.99982 4.99941C9.55211 4.99941 9.99982 5.44713 9.99982 5.99941V8.08233C10.6058 8.18464 11.1764 8.38466 11.6593 8.69176C12.4224 9.17703 13.0002 9.96508 13.0002 11.0006C13.0002 11.5529 12.5525 12.0006 12.0002 12.0006C11.4479 12.0006 11.0002 11.5529 11.0002 11.0006C11.0002 10.7961 10.908 10.5841 10.5861 10.3794C10.2435 10.1616 9.69314 10.0006 9.00018 10.0006C8.57442 10.0006 8.2253 10.0013 7.91782 10.0281C7.6094 10.0549 7.41693 10.1032 7.2962 10.1588C7.19874 10.2037 7.15308 10.2495 7.1158 10.3187C7.06775 10.4079 7.00018 10.6041 7.00018 11.0006C7.00018 11.3555 7.15513 11.6613 7.57786 12.0136C8.03352 12.3933 8.66906 12.717 9.44739 13.1062C9.46541 13.1152 9.48352 13.1242 9.50171 13.1333C10.2121 13.4884 11.0502 13.9073 11.7029 14.4511C12.4051 15.0363 13.0002 15.8555 13.0002 17.0006C13.0002 17.6041 12.9003 18.1579 12.6452 18.6312C12.3793 19.1245 11.9862 19.4537 11.5412 19.6588C11.1194 19.8532 10.6656 19.9299 10.2559 19.9656C10.1717 19.9729 10.0861 19.9787 9.99982 19.9833V21.9994C9.99982 22.5517 9.55211 22.9994 8.99982 22.9994C8.44754 22.9994 7.99982 22.5517 7.99982 21.9994V19.9392C7.42467 19.8633 6.86316 19.7088 6.37853 19.4296C5.53604 18.9443 5.00018 18.1195 5.00018 17.0006C5.00018 16.4483 5.44789 16.0006 6.00018 16.0006C6.55246 16.0006 7.00018 16.4483 7.00018 17.0006C7.00018 17.3817 7.13431 17.5569 7.37682 17.6966C7.69016 17.8771 8.21788 17.9957 8.95424 18.0004C8.96935 17.9998 8.98454 17.9994 8.99982 17.9994C9.01615 17.9994 9.03238 17.9998 9.04852 18.0006C9.45248 18.0005 9.78677 17.9988 10.0825 17.9731C10.391 17.9463 10.5834 17.898 10.7041 17.8424C10.8016 17.7975 10.8473 17.7516 10.8845 17.6824C10.9326 17.5933 11.0002 17.3971 11.0002 17.0006C11.0002 16.6457 10.8452 16.3398 10.4225 15.9876C9.96683 15.6078 9.33129 15.2842 8.55296 14.895C8.53494 14.886 8.51684 14.877 8.49864 14.8679C7.78824 14.5128 6.95012 14.0939 6.29749 13.5501C5.59522 12.9648 5.00018 12.1457 5.00018 11.0006C5.00018 10.3971 5.1001 9.84328 5.35517 9.36994C5.62102 8.87663 6.01411 8.54747 6.45915 8.34238C6.88093 8.14801 7.33471 8.07126 7.74441 8.0356C7.82847 8.02829 7.9138 8.0225 7.99982 8.01792V5.99941C7.99982 5.44713 8.44754 4.99941 8.99982 4.99941ZM15.9996 18.9994C15.9996 18.4471 16.4474 17.9994 16.9996 17.9994H22.9996C23.5519 17.9994 23.9996 18.4471 23.9996 18.9994C23.9996 19.5517 23.5519 19.9994 22.9996 19.9994H16.9996C16.4474 19.9994 15.9996 19.5517 15.9996 18.9994Z" fill="white"/>
</svg>
