<svg width="28" height="29" viewBox="0 0 28 29" fill="none" xmlns="http://www.w3.org/2000/svg">
<path fill-rule="evenodd" clip-rule="evenodd" d="M3 2.5C2.44772 2.5 2 2.94772 2 3.5V22.5C2 23.0523 2.44771 23.5 3 23.5H25C25.5523 23.5 26 23.0523 26 22.5V3.5C26 2.94771 25.5523 2.5 25 2.5H3ZM24 25.5H25C26.6569 25.5 28 24.1569 28 22.5V3.5C28 1.84315 26.6569 0.5 25 0.5H3C1.34315 0.5 0 1.84315 0 3.5V22.5C0 24.1569 1.34315 25.5 3 25.5V27.5C3 28.0523 3.44772 28.5 4 28.5C4.55228 28.5 5 28.0523 5 27.5V25.5H22V27.5C22 28.0523 22.4477 28.5 23 28.5C23.5523 28.5 24 28.0523 24 27.5V25.5ZM17 6C17.5523 6 18 6.44772 18 7V8.61151C18.5024 8.7255 18.9728 8.92353 19.3957 9.19004L20.5329 8.0529C20.9234 7.66238 21.5566 7.66238 21.9471 8.0529C22.3376 8.44343 22.3376 9.07659 21.9471 9.46712L20.8099 10.6043C21.0765 11.0272 21.2745 11.4976 21.3885 12H23C23.5523 12 24 12.4477 24 13C24 13.5523 23.5523 14 23 14H21.3885C21.2745 14.5024 21.0765 14.9728 20.81 15.3957L21.9471 16.5329C22.3376 16.9234 22.3376 17.5566 21.9471 17.9471C21.5566 18.3376 20.9234 18.3376 20.5329 17.9471L19.3957 16.81C18.9728 17.0765 18.5024 17.2745 18 17.3885V19C18 19.5523 17.5523 20 17 20C16.4477 20 16 19.5523 16 19V17.3885C15.4976 17.2745 15.0272 17.0765 14.6043 16.8099L13.4671 17.9471C13.0766 18.3376 12.4434 18.3376 12.0529 17.9471C11.6624 17.5566 11.6624 16.9234 12.0529 16.5329L13.19 15.3957C12.9235 14.9728 12.7255 14.5024 12.6115 14H11C10.4477 14 10 13.5523 10 13C10 12.4477 10.4477 12 11 12H12.6115C12.7255 11.4976 12.9235 11.0272 13.19 10.6043L12.0529 9.46712C11.6624 9.07659 11.6624 8.44343 12.0529 8.0529C12.4434 7.66238 13.0766 7.66238 13.4671 8.0529L14.6043 9.19005C15.0272 8.92353 15.4976 8.7255 16 8.61151V7C16 6.44772 16.4477 6 17 6ZM6 8.5C6.55228 8.5 7 8.94772 7 9.5V16.5C7 17.0523 6.55228 17.5 6 17.5C5.44772 17.5 5 17.0523 5 16.5V9.5C5 8.94772 5.44772 8.5 6 8.5ZM17 10.5C15.6193 10.5 14.5 11.6193 14.5 13C14.5 14.3807 15.6193 15.5 17 15.5C18.3807 15.5 19.5 14.3807 19.5 13C19.5 11.6193 18.3807 10.5 17 10.5Z" fill="white"/>
</svg>
