<svg width="29" height="31" viewBox="0 0 29 31" fill="none" xmlns="http://www.w3.org/2000/svg">
<path fill-rule="evenodd" clip-rule="evenodd" d="M9.90667 0.469971H19.1019C19.5303 0.473652 19.9501 0.590563 20.3188 0.808784C20.6875 1.027 20.9919 1.33881 21.2012 1.71261C21.4106 2.08641 21.5173 2.5089 21.5108 2.93726C21.5042 3.36563 21.3845 3.78464 21.1637 4.15183C21.1433 4.18581 21.1209 4.21854 21.0966 4.24986L19.273 6.59894C22.1005 8.15122 24.3224 9.9703 25.8795 12.1762C27.6386 14.6684 28.5 17.5846 28.5 21.0133C28.5 24.3673 26.9512 26.8482 24.3685 28.4404C21.8452 29.996 18.3846 30.68 14.5 30.68C10.6152 30.68 7.15558 29.9959 4.63294 28.4467C2.05151 26.8614 0.5 24.3919 0.5 21.0566C0.5 17.6278 1.36142 14.7118 3.12021 12.2173C4.67823 10.0075 6.90192 8.18279 9.73223 6.62112L7.90148 4.24735C7.87791 4.21679 7.85614 4.1849 7.83626 4.15183C7.61554 3.78464 7.49582 3.36563 7.48924 2.93726C7.48266 2.5089 7.58944 2.08641 7.79876 1.71261C8.00809 1.33882 8.31252 1.02701 8.68119 0.808784C9.04986 0.590563 9.46967 0.473689 9.89808 0.470008L9.90667 0.469971ZM9.91222 2.46997C9.83747 2.47114 9.76429 2.49178 9.69993 2.52988C9.63469 2.5685 9.58082 2.62367 9.54378 2.68982C9.50673 2.75596 9.48784 2.83073 9.489 2.90653C9.48996 2.96859 9.50433 3.02954 9.53095 3.08526L12.0419 6.34093C12.2241 6.57723 12.2913 6.88257 12.2251 7.17354C12.1589 7.46451 11.9661 7.71071 11.6996 7.84487C8.54285 9.43376 6.25577 11.2409 4.75479 13.3697C3.26358 15.4848 2.5 17.9855 2.5 21.0566C2.5 23.6581 3.65682 25.5002 5.67956 26.7424C7.76108 28.0207 10.8014 28.68 14.5 28.68C18.1987 28.68 21.2382 28.0206 23.319 26.7379C25.3405 25.4917 26.5 23.6393 26.5 21.0133C26.5 17.942 25.7364 15.4416 24.2455 13.3296C22.745 11.2039 20.4587 9.40233 17.3028 7.8244C17.035 7.69049 16.8412 7.44361 16.7749 7.15162C16.7085 6.85964 16.7765 6.55328 16.9601 6.31675L19.4695 3.08424C19.4958 3.0288 19.51 2.96821 19.511 2.90653C19.5122 2.83072 19.4933 2.75596 19.4562 2.68982C19.4192 2.62368 19.3653 2.5685 19.3001 2.52988C19.2357 2.49178 19.1625 2.47114 19.0878 2.46997H9.91222ZM14.5 10.3067C15.0523 10.3067 15.5 10.7544 15.5 11.3067V12.5408C15.6877 12.5838 15.8723 12.6414 16.0521 12.7133C16.564 12.9181 17.0241 13.2338 17.3994 13.6376C17.7753 14.0422 17.7521 14.675 17.3475 15.0509C16.9429 15.4268 16.3101 15.4036 15.9342 14.999C15.7602 14.8117 15.5468 14.6653 15.3093 14.5703C15.0719 14.4753 14.8164 14.4342 14.5612 14.4498C14.5153 14.4526 14.4693 14.4522 14.4234 14.4487C14.0566 14.4205 13.6934 14.5373 13.4118 14.7739C13.1561 14.9888 12.9861 15.287 12.9305 15.6141C12.9889 15.9421 13.1606 16.2405 13.4173 16.4562C13.6999 16.6937 14.0637 16.8124 14.4321 16.7873C15.317 16.727 16.1907 17.0121 16.8697 17.5827C17.5487 18.1532 17.98 18.9648 18.073 19.8468C18.0803 19.9165 18.0803 19.9868 18.073 20.0565C17.98 20.9385 17.5487 21.7501 16.8697 22.3207C16.4685 22.6578 15.9993 22.8953 15.5 23.0207V24.35C15.5 24.9023 15.0523 25.35 14.5 25.35C13.9477 25.35 13.5 24.9023 13.5 24.35V23.0121C13.2963 22.9615 13.0967 22.8935 12.9034 22.8084C12.388 22.5817 11.9315 22.2399 11.5687 21.8093C11.2128 21.3869 11.2668 20.756 11.6892 20.4002C12.1115 20.0444 12.7424 20.0983 13.0982 20.5207C13.2642 20.7177 13.4731 20.8741 13.7089 20.9778C13.9447 21.0816 14.2011 21.1299 14.4585 21.1192C14.495 21.1177 14.5316 21.1181 14.5681 21.1206C14.9365 21.1457 15.3003 21.027 15.583 20.7895C15.8386 20.5747 16.0099 20.278 16.069 19.9517C16.0099 19.6253 15.8386 19.3286 15.583 19.1138C15.3003 18.8763 14.9365 18.7576 14.5681 18.7827C13.6833 18.843 12.8095 18.5579 12.1306 17.9873C11.4516 17.4167 11.0203 16.6051 10.9273 15.7231C10.9203 15.6564 10.92 15.589 10.9264 15.5222C11.0122 14.6347 11.4425 13.8163 12.1251 13.2428C12.5275 12.9046 12.9988 12.6674 13.5 12.5437V11.3067C13.5 10.7544 13.9477 10.3067 14.5 10.3067Z" fill="white"/>
</svg>
