<svg width="28" height="29" viewBox="0 0 28 29" fill="none" xmlns="http://www.w3.org/2000/svg">
<path fill-rule="evenodd" clip-rule="evenodd" d="M0.87868 1.37868C1.44129 0.816071 2.20435 0.5 3 0.5H17C17.2652 0.5 17.5196 0.605357 17.7071 0.792893L27.7071 10.7929C27.8946 10.9804 28 11.2348 28 11.5V25.5C28 26.2957 27.6839 27.0587 27.1213 27.6213C26.5587 28.1839 25.7957 28.5 25 28.5H3C2.20435 28.5 1.44129 28.1839 0.87868 27.6213C0.316071 27.0587 0 26.2957 0 25.5V3.5C0 2.70435 0.316071 1.94129 0.87868 1.37868ZM3 2.5C2.73478 2.5 2.48043 2.60536 2.29289 2.79289C2.10536 2.98043 2 3.23478 2 3.5V25.5C2 25.7652 2.10536 26.0196 2.29289 26.2071C2.48043 26.3946 2.73478 26.5 3 26.5H25C25.2652 26.5 25.5196 26.3946 25.7071 26.2071C25.8946 26.0196 26 25.7652 26 25.5V12.5H18C17.4696 12.5 16.9609 12.2893 16.5858 11.9142C16.2107 11.5391 16 11.0304 16 10.5V2.5H3ZM18 3.91421L24.5858 10.5H18V3.91421ZM9 5.5C9.55229 5.5 10 5.94772 10 6.5V8.58181C10.6059 8.68414 11.1763 8.88413 11.6591 9.19118C12.4222 9.67645 13 10.4645 13 11.5C13 12.0523 12.5523 12.5 12 12.5C11.4477 12.5 11 12.0523 11 11.5C11 11.2955 10.9078 11.0836 10.5859 10.8788C10.2433 10.661 9.69297 10.5 9 10.5C8.57424 10.5 8.22512 10.5007 7.91764 10.5275C7.60922 10.5543 7.41675 10.6026 7.29603 10.6582C7.19857 10.7031 7.15291 10.749 7.11563 10.8181C7.06758 10.9073 7 11.1035 7 11.5C7 11.8549 7.15495 12.1608 7.57768 12.513C8.03335 12.8927 8.66889 13.2164 9.44721 13.6056C9.46523 13.6146 9.48333 13.6236 9.50152 13.6327C10.2119 13.9878 11.0501 14.4067 11.7027 14.9505C12.405 15.5358 13 16.3549 13 17.5C13 18.1035 12.9001 18.6573 12.645 19.1306C12.3792 19.624 11.9861 19.9531 11.541 20.1582C11.1192 20.3526 10.6655 20.4293 10.2558 20.465C10.1716 20.4723 10.0861 20.4781 10 20.4827V22.5C10 23.0523 9.55229 23.5 9 23.5C8.44772 23.5 8 23.0523 8 22.5V20.4386C7.42472 20.3628 6.86308 20.2082 6.37835 19.929C5.53587 19.4437 5 18.6189 5 17.5C5 16.9477 5.44772 16.5 6 16.5C6.55228 16.5 7 16.9477 7 17.5C7 17.8811 7.13413 18.0563 7.37665 18.196C7.69647 18.3802 8.23961 18.5 9 18.5C9.42576 18.5 9.77488 18.4993 10.0824 18.4725C10.3908 18.4457 10.5833 18.3974 10.704 18.3418C10.8014 18.2969 10.8471 18.251 10.8844 18.1819C10.9324 18.0927 11 17.8965 11 17.5C11 17.1451 10.845 16.8392 10.4223 16.487C9.96665 16.1073 9.33111 15.7836 8.55279 15.3944C8.53477 15.3854 8.51666 15.3764 8.49847 15.3673C7.78807 15.0122 6.94994 14.5933 6.29732 14.0495C5.59505 13.4642 5 12.6451 5 11.5C5 10.8965 5.09992 10.3427 5.355 9.86936C5.62084 9.37604 6.01393 9.04688 6.45897 8.8418C6.88075 8.64743 7.33453 8.57067 7.74423 8.53502C7.82841 8.52769 7.91386 8.5219 8 8.51731V6.5C8 5.94772 8.44772 5.5 9 5.5ZM16 19.5C16 18.9477 16.4477 18.5 17 18.5H23C23.5523 18.5 24 18.9477 24 19.5C24 20.0523 23.5523 20.5 23 20.5H17C16.4477 20.5 16 20.0523 16 19.5Z" fill="white"/>
</svg>
