<svg width="18" height="33" viewBox="0 0 18 33" fill="none" xmlns="http://www.w3.org/2000/svg">
<path fill-rule="evenodd" clip-rule="evenodd" d="M4.66909 0C5.22138 0 5.66909 0.447715 5.66909 1V3.47317H9.45945V1C9.45945 0.447715 9.90716 0 10.4594 0C11.0117 0 11.4594 0.447715 11.4594 1V3.52848C12.8428 3.73869 14.1188 4.41456 15.0719 5.45162C16.1303 6.60324 16.7113 8.11412 16.6972 9.67813C16.6832 11.2421 16.0751 12.7423 14.9962 13.8747C14.7379 14.1459 14.4572 14.391 14.1583 14.6084C14.7731 14.9353 15.3418 15.3538 15.8432 15.8552C17.1729 17.1849 17.92 18.9884 17.92 20.869C17.92 22.7495 17.1729 24.553 15.8432 25.8827C14.6628 27.0631 13.109 27.7844 11.4594 27.9315V31.1052C11.4594 31.6574 11.0117 32.1052 10.4594 32.1052C9.90716 32.1052 9.45945 31.6574 9.45945 31.1052V27.9595H5.66909V31.1052C5.66909 31.6574 5.22138 32.1052 4.66909 32.1052C4.11681 32.1052 3.66909 31.6574 3.66909 31.1052V27.9595H2.95575C2.19304 27.9595 1.46157 27.6565 0.922256 27.1172C0.38294 26.5779 0.0799561 25.8464 0.0799561 25.0837V6.34896C0.0799561 5.58625 0.382941 4.85479 0.922256 4.31547C1.46157 3.77616 2.19304 3.47317 2.95575 3.47317H3.66909V1C3.66909 0.447715 4.11681 0 4.66909 0ZM4.63678 5.47317H2.95575C2.72347 5.47317 2.50071 5.56544 2.33647 5.72968C2.17223 5.89393 2.07996 6.11669 2.07996 6.34896V13.7788H10.7932C11.8402 13.7133 12.8242 13.255 13.5482 12.4952C14.277 11.7302 14.6878 10.7167 14.6973 9.66015C14.7068 8.60359 14.3143 7.58292 13.5993 6.80495C12.8924 6.03574 11.9225 5.56067 10.8823 5.47317H10.4918C10.481 5.47351 10.4703 5.47368 10.4594 5.47368C10.4486 5.47368 10.4379 5.47351 10.4271 5.47317H4.7014C4.69067 5.47351 4.6799 5.47368 4.66909 5.47368C4.65828 5.47368 4.64751 5.47351 4.63678 5.47317ZM10.8914 15.7788H2.07996V25.0837C2.07996 25.316 2.17223 25.5387 2.33647 25.703C2.50071 25.8672 2.72347 25.9595 2.95575 25.9595H10.8294C12.1795 25.9595 13.4743 25.4232 14.429 24.4685C15.3836 23.5138 15.92 22.2191 15.92 20.869C15.92 19.5189 15.3836 18.2241 14.429 17.2694C13.4889 16.3294 12.2191 15.795 10.8914 15.7788Z" fill="#96EA63"/>
</svg>
