<svg width="28" height="29" viewBox="0 0 28 29" fill="none" xmlns="http://www.w3.org/2000/svg">
<path fill-rule="evenodd" clip-rule="evenodd" d="M0.585786 1.08579C0.960859 0.710714 1.46957 0.5 2 0.5H26C26.5304 0.5 27.0391 0.710713 27.4142 1.08579C27.7893 1.46086 28 1.96957 28 2.5V8.5C28 9.03043 27.7893 9.53914 27.4142 9.91421C27.0391 10.2893 26.5304 10.5 26 10.5C25.4477 10.5 25 10.0523 25 9.5C25 8.94772 25.4477 8.5 26 8.5V2.5H2V8.5C2.55228 8.5 3 8.94772 3 9.5C3 10.0523 2.55228 10.5 2 10.5C1.46957 10.5 0.960859 10.2893 0.585786 9.91421C0.210714 9.53914 0 9.03043 0 8.5V2.5C0 1.96957 0.210714 1.46086 0.585786 1.08579ZM6 7.5C6 6.39543 6.89543 5.5 8 5.5H20C21.1046 5.5 22 6.39543 22 7.5V21.5C22 22.6046 21.1046 23.5 20 23.5H8C6.89543 23.5 6 22.6046 6 21.5V7.5ZM20 7.5H8V21.5H20V7.5ZM14 12.5C12.8954 12.5 12 13.3954 12 14.5C12 15.6046 12.8954 16.5 14 16.5C15.1046 16.5 16 15.6046 16 14.5C16 13.3954 15.1046 12.5 14 12.5ZM10 14.5C10 12.2909 11.7909 10.5 14 10.5C16.2091 10.5 18 12.2909 18 14.5C18 16.7091 16.2091 18.5 14 18.5C11.7909 18.5 10 16.7091 10 14.5ZM6 27.5C6 26.9477 6.44772 26.5 7 26.5H21C21.5523 26.5 22 26.9477 22 27.5C22 28.0523 21.5523 28.5 21 28.5H7C6.44772 28.5 6 28.0523 6 27.5Z" fill="white"/>
</svg>
