<svg width="17" height="32" viewBox="0 0 17 32" fill="none" xmlns="http://www.w3.org/2000/svg">
<path fill-rule="evenodd" clip-rule="evenodd" d="M0.292893 0.292893C0.683417 -0.0976311 1.31658 -0.0976311 1.70711 0.292893L15.6539 14.2396C15.8558 14.4325 16.0171 14.664 16.128 14.9204C16.2415 15.1824 16.3 15.4649 16.3 15.7504C16.3 16.0359 16.2415 16.3184 16.128 16.5804C16.0171 16.8368 15.8558 17.0683 15.6539 17.2612L1.70711 31.2079C1.31658 31.5984 0.683417 31.5984 0.292893 31.2079C-0.0976311 30.8174 -0.0976311 30.1842 0.292893 29.7937L14.2491 15.8376C14.2565 15.8301 14.2641 15.8227 14.2718 15.8155C14.2807 15.8071 14.2878 15.7971 14.2927 15.7859C14.2975 15.7747 14.3 15.7626 14.3 15.7504C14.3 15.7382 14.2975 15.7261 14.2927 15.7149C14.2878 15.7038 14.2807 15.6937 14.2718 15.6853C14.2674 15.6812 14.263 15.677 14.2587 15.6728C14.2555 15.6696 14.2522 15.6665 14.2491 15.6633L0.292893 1.70711C-0.0976311 1.31658 -0.0976311 0.683418 0.292893 0.292893Z" fill="white"/>
</svg>
