<svg width="29" height="33" viewBox="0 0 29 33" fill="none" xmlns="http://www.w3.org/2000/svg">
<path fill-rule="evenodd" clip-rule="evenodd" d="M2.00933 0.493718C2.59095 0.170004 3.2457 0 3.91162 0C4.58594 0 5.24881 0.174319 5.83589 0.50604C5.84641 0.511984 5.85682 0.518118 5.86711 0.524439L26.1382 12.9683C26.7281 13.2637 27.2261 13.7154 27.5774 14.2746C27.9385 14.8494 28.13 15.5143 28.13 16.1931C28.13 16.8718 27.9385 17.5368 27.5774 18.1115C27.2264 18.6703 26.729 19.1217 26.1398 19.417L5.86997 31.9539C5.85874 31.9608 5.84738 31.9675 5.83589 31.974C5.2488 32.3058 4.58594 32.4801 3.91162 32.4801C3.2457 32.4801 2.59095 32.3101 2.00933 31.9864C1.41817 31.6856 0.919202 31.2305 0.565495 30.6691C0.207261 30.1005 0.0117288 29.4445 0.000148475 28.7726L0 28.7553V3.72476L0.000148475 3.70752C0.0117288 3.03556 0.207261 2.37963 0.565495 1.811C0.919203 1.24956 1.41817 0.79444 2.00933 0.493718ZM3.91162 2C3.58208 2 3.25814 2.08519 2.97123 2.2473C2.95653 2.25561 2.94162 2.26354 2.92651 2.2711C2.65238 2.40817 2.42105 2.61775 2.25768 2.87707C2.09566 3.13425 2.00661 3.43058 2 3.73437V28.7457C2.00661 29.0495 2.09566 29.3458 2.25768 29.603C2.42105 29.8623 2.65238 30.0719 2.92651 30.209C2.94162 30.2165 2.95653 30.2245 2.97123 30.2328C3.25814 30.3949 3.58208 30.4801 3.91162 30.4801C4.23525 30.4801 4.55348 30.3979 4.83654 30.2414L25.1288 17.6907C25.1586 17.6723 25.1893 17.6554 25.2208 17.6403C25.4932 17.509 25.723 17.3036 25.8838 17.0476C26.0447 16.7916 26.13 16.4954 26.13 16.1931C26.13 15.8907 26.0447 15.5945 25.8838 15.3385C25.723 15.0825 25.4932 14.8771 25.2208 14.7459C25.1903 14.7312 25.1606 14.7149 25.1317 14.6972L4.83785 2.23938C4.55447 2.08242 4.23575 2 3.91162 2Z" fill="#96EA63"/>
</svg>
