<svg width="30" height="30" viewBox="0 0 30 30" fill="none" xmlns="http://www.w3.org/2000/svg">
<path fill-rule="evenodd" clip-rule="evenodd" d="M20.7003 2.00046C20.6929 1.9995 20.6854 2.00005 20.6782 2.00208L20.6595 2.00713L8.44688 5.19491C7.9125 5.3344 7.36622 5.01427 7.22674 4.47989C7.08725 3.94551 7.40738 3.39923 7.94176 3.25975L20.1466 0.074001C20.4106 0.0011847 20.6865 -0.0181597 20.9581 0.0171472C21.2335 0.0529389 21.4987 0.144151 21.7379 0.285276C21.977 0.426403 22.185 0.614518 22.3495 0.838266C22.5122 1.05966 22.6288 1.31141 22.6925 1.57862L23.2941 3.9848C23.428 4.52059 23.1023 5.06352 22.5665 5.19747C22.0307 5.33142 21.4877 5.00566 21.3538 4.46987L20.7507 2.05749L20.7471 2.04279C20.7454 2.0355 20.7423 2.02863 20.7378 2.0226C20.7334 2.01657 20.7278 2.0115 20.7213 2.00769C20.7149 2.00389 20.7077 2.00143 20.7003 2.00046ZM0.923757 9.53628C1.51523 8.94481 2.31744 8.61252 3.1539 8.61252H23.616C24.4525 8.61252 25.2547 8.94481 25.8461 9.53628C26.4376 10.1277 26.7699 10.93 26.7699 11.7664V15.0737H27.9229C29.07 15.0737 29.9999 16.0036 29.9999 17.1507V20.3816C29.9999 21.5286 29.07 22.4585 27.9229 22.4585H26.7699V26.8438C26.7699 27.6802 26.4376 28.4824 25.8461 29.0739C25.2547 29.6654 24.4525 29.9977 23.616 29.9977H3.1539C2.31744 29.9977 1.51523 29.6654 0.923757 29.0739C0.332286 28.4824 0 27.6802 0 26.8438V11.7664C0 10.93 0.332285 10.1278 0.923757 9.53628ZM24.7699 22.4585H22.5382C21.3911 22.4585 20.4612 21.5286 20.4612 20.3816V17.1507C20.4612 16.0036 21.3911 15.0737 22.5382 15.0737H24.7699V11.7664C24.7699 11.4604 24.6483 11.1669 24.4319 10.9505C24.2155 10.7341 23.922 10.6125 23.616 10.6125H3.1539C2.84787 10.6125 2.55437 10.7341 2.33797 10.9505C2.12157 11.1669 2 11.4604 2 11.7664V26.8438C2 27.1498 2.12157 27.4433 2.33797 27.6597C2.55437 27.8761 2.84787 27.9977 3.1539 27.9977H23.616C23.922 27.9977 24.2155 27.8761 24.4319 27.6597C24.6483 27.4433 24.7699 27.1498 24.7699 26.8438V22.4585ZM25.7385 17.0737H22.5382C22.4957 17.0737 22.4612 17.1082 22.4612 17.1507V20.3816C22.4612 20.4241 22.4957 20.4585 22.5382 20.4585H27.9229C27.9654 20.4585 27.9999 20.4241 27.9999 20.3816V17.1507C27.9999 17.1082 27.9654 17.0737 27.9229 17.0737H25.8013C25.7908 17.0741 25.7804 17.0742 25.7699 17.0742C25.7594 17.0742 25.7489 17.0741 25.7385 17.0737Z" fill="white"/>
</svg>
