<svg width="16" height="17" viewBox="0 0 16 17" fill="none" xmlns="http://www.w3.org/2000/svg">
<path fill-rule="evenodd" clip-rule="evenodd" d="M1.04289 0.728562C1.43342 0.338038 2.06658 0.338038 2.45711 0.728562L9.14808 7.41953C9.43087 7.70804 9.58924 8.09596 9.58924 8.49995C9.58924 8.90395 9.43084 9.29183 9.14804 9.58034L9.14104 9.58748L2.45711 16.2713C2.06658 16.6619 1.43342 16.6619 1.04289 16.2713C0.652369 15.8808 0.652369 15.2477 1.04289 14.8571L7.40007 8.49995L1.04289 2.14278C0.652369 1.75225 0.652369 1.11909 1.04289 0.728562ZM6.70577 0.727987C7.09661 0.337781 7.72977 0.338296 8.11998 0.729138L14.7845 7.40454C14.9292 7.54404 15.0449 7.71087 15.1248 7.89542C15.2074 8.08626 15.25 8.29201 15.25 8.49995C15.25 8.7079 15.2074 8.91365 15.1248 9.10448C15.0449 9.28904 14.9292 9.45587 14.7845 9.59536L8.11998 16.2708C7.72977 16.6616 7.09661 16.6621 6.70577 16.2719C6.31492 15.8817 6.31441 15.2485 6.70461 14.8577L13.052 8.49995L6.70461 2.1422C6.31441 1.75136 6.31492 1.11819 6.70577 0.727987Z" fill="#000001"/>
</svg>
